Coordinates
version=1
nRows=43
nColumns=12
inDegrees=yes

Units are S.I. units (second, meters, Newtons, ...)
Angles are in degrees

endheader
time	SC_y	SC_z	SC_x	AC_y	AC_z	AC_x	GH_y	GH_z	GH_yy	EL_x	PS_y
       0.0               -35.2          12.93          68.19          41.93          2.526         -2.381         -50.84          83.99          135.5          15.16          135.3
  0.004898               -35.2          12.93          68.19          41.93          2.523         -2.379         -50.84          83.99          135.5          15.16          135.3
  0.009795               -35.2          12.93          68.19          41.94           2.52         -2.378         -50.84          83.99          135.5          15.17          135.3
   0.01469               -35.2          12.93           68.2          41.94          2.516         -2.377         -50.84          83.99          135.5          15.17          135.3
   0.01959               -35.2          12.94           68.2          41.95          2.513         -2.375         -50.84          83.99          135.5          15.18          135.3
   0.02449               -35.2          12.94           68.2          41.95          2.509         -2.373         -50.84          83.99          135.5          15.18          135.2
   0.02939               -35.2          12.94           68.2          41.96          2.504         -2.372         -50.84           84.0          135.5          15.19          135.2
   0.03428               -35.2          12.95          68.21          41.96            2.5          -2.37         -50.84           84.0          135.5           15.2          135.2
   0.03918              -35.21          12.95          68.21          41.97          2.495         -2.368         -50.84           84.0          135.5           15.2          135.2
   0.04408              -35.21          12.95          68.21          41.97           2.49         -2.366         -50.84           84.0          135.5          15.21          135.2
   0.04898              -35.21          12.96          68.21          41.98          2.484         -2.364         -50.84           84.0          135.5          15.22          135.2
   0.05387              -35.21          12.96          68.22          41.98          2.478         -2.361         -50.84           84.0          135.5          15.23          135.2
   0.05877              -35.21          12.97          68.22          41.99          2.472         -2.358         -50.84           84.0          135.5          15.24          135.2
   0.06367              -35.22          12.97          68.23           42.0          2.465         -2.356         -50.84          84.01          135.5          15.25          135.2
   0.06857              -35.22          12.98          68.23          42.01          2.457         -2.352         -50.84          84.01          135.4          15.26          135.2
   0.07346              -35.22          12.98          68.24          42.02          2.449         -2.349         -50.84          84.01          135.4          15.27          135.2
   0.07836              -35.22          12.99          68.24          42.03           2.44         -2.345         -50.85          84.01          135.4          15.28          135.2
   0.08326              -35.23           13.0          68.25          42.04           2.43         -2.342         -50.85          84.02          135.4          15.29          135.2
   0.08816              -35.23          13.01          68.25          42.05           2.42         -2.337         -50.85          84.02          135.4          15.31          135.2
   0.09306              -35.24          13.01          68.26          42.06          2.408         -2.332         -50.85          84.02          135.4          15.33          135.2
   0.09795              -35.24          13.02          68.27          42.08          2.395         -2.327         -50.85          84.03          135.4          15.34          135.2
    0.1029              -35.24          13.03          68.28          42.09          2.381         -2.321         -50.85          84.03          135.3          15.36          135.2
    0.1077              -35.25          13.04          68.29          42.11          2.366         -2.315         -50.85          84.03          135.3          15.39          135.2
    0.1126              -35.26          13.06           68.3          42.13          2.349         -2.308         -50.85          84.04          135.3          15.41          135.1
    0.1175              -35.26          13.07          68.31          42.15           2.33           -2.3         -50.85          84.04          135.3          15.44          135.1
    0.1224              -35.27          13.09          68.32          42.18          2.308         -2.292         -50.86          84.05          135.2          15.47          135.1
    0.1273              -35.28          13.11          68.33           42.2          2.284         -2.282         -50.86          84.06          135.2           15.5          135.1
    0.1322              -35.29          13.12          68.35          42.23          2.257         -2.271         -50.86          84.06          135.2          15.54          135.1
    0.1371               -35.3          13.15          68.37          42.27          2.227         -2.258         -50.86          84.07          135.1          15.58          135.1
     0.142              -35.31          13.17          68.39           42.3          2.193         -2.244         -50.86          84.08          135.1          15.63          135.0
    0.1469              -35.32           13.2          68.41          42.35          2.153         -2.228         -50.87          84.09          135.0          15.69          135.0
    0.1518              -35.34          13.24          68.44           42.4          2.108          -2.21         -50.87          84.11          135.0          15.75          135.0
    0.1567              -35.35          13.27          68.47          42.46          2.056         -2.189         -50.87          84.12          134.9          15.82          135.0
    0.1616              -35.37          13.32          68.51          42.53          1.995         -2.164         -50.88          84.14          134.8          15.91          134.9
    0.1665               -35.4          13.37          68.55          42.61          1.924         -2.135         -50.88          84.16          134.7          16.01          134.9
    0.1714              -35.43          13.43           68.6           42.7          1.841         -2.101         -50.89          84.18          134.6          16.13          134.8
    0.1763              -35.46          13.51          68.66          42.81          1.742          -2.06          -50.9          84.21          134.4          16.27          134.8
    0.1812               -35.5          13.59          68.73          42.94          1.622         -2.012         -50.91          84.24          134.3          16.44          134.7
    0.1861              -35.55           13.7          68.82           43.1          1.478         -1.953         -50.92          84.28          134.1          16.64          134.6
     0.191              -35.61          13.83          68.92           43.3          1.303         -1.881         -50.93          84.33          133.8          16.89          134.5
    0.1959              -35.68          13.99          69.05          43.54          1.085         -1.792         -50.94          84.39          133.5          17.19          134.3
    0.2008              -35.77          14.19          69.22          43.85         0.8146         -1.682         -50.96          84.47          133.1          17.58          134.2
    0.2057              -35.89          14.44          69.42          44.23         0.4735         -1.543         -50.99          84.57          132.6          18.06          133.9
